<svg width="51" height="50" fill="none" xmlns="http://www.w3.org/2000/svg"><g clip-path="url(#a)"><path d="M44.897 43.75c-5.25 3.875-13.125 6.25-19.5 6.25-9.125 0-17.25-3.625-23.5-9.25-.5-.5 0-1 .5-.75 6.75 3.875 14.375 6.125 22.875 6.125 5.75 0 13-1.25 18.875-3.75.875-.25 1.625.75.75 1.375Zm1.875-2.625c-.625-.875-4.375-.375-6-.25-.5 0-.625-.375-.125-.75 2.875-2.125 7.75-1.5 8.25-.75S48.772 45 46.022 47.25c-.375.375-.875.125-.625-.25.625-1.5 2-5 1.375-5.875Z" fill="#FFB300"/><path d="M41.522 32.25c-1.25-1.625-2.5-3-2.5-6.125V15.75c0-4.375 0-8.25-3.125-11.25-2.5-2.375-6.625-3.25-9.875-3.25-6.875 0-12.875 2.75-14.375 10.5-.126.875.5 1.25 1 1.375l6.374.75c.625 0 1-.625 1.125-1.25.5-2.625 2.625-3.875 5.125-3.875 1.375 0 4 .75 4 3.75v3.75c-4 0-8.25 0-11.75 1.5-4.125 1.75-7 5.375-7 10.75 0 6.875 4.25 10.25 9.75 10.25 4.625 0 7.375-1.125 11-4.75 1.126 1.75 1.626 2.75 3.75 4.625.5.25 1.126.25 1.5-.125 1.25-1.125 3.626-3.25 5-4.375.626-.5.5-1.25 0-1.875Zm-12.375-9.625c0 2.5-.125 8.625-6.25 8.625-3.75 0-3.75-3.75-3.75-3.75 0-5.625 5.25-6.25 10-6.25v1.375Z" fill="#37474F"/></g><defs><clipPath id="a"><path fill="#fff" transform="translate(.396)" d="M0 0h50v50H0z"/></clipPath></defs></svg>