<?xml version="1.0" encoding="UTF-8"?>
<!DOCTYPE svg PUBLIC "-//W3C//DTD SVG 1.1//EN" "http://www.w3.org/Graphics/SVG/1.1/DTD/svg11.dtd">
<svg xmlns="http://www.w3.org/2000/svg" version="1.1" width="512px" height="512px" style="shape-rendering:geometricPrecision; text-rendering:geometricPrecision; image-rendering:optimizeQuality; fill-rule:evenodd; clip-rule:evenodd" xmlns:xlink="http://www.w3.org/1999/xlink">
<g><path style="opacity:0.998" fill="#e7ecf2" d="M 335.5,7.5 C 342.058,9.55503 346.558,13.8884 349,20.5C 349.333,40.8333 349.667,61.1667 350,81.5C 352.305,91.1397 358.138,97.6397 367.5,101C 388.167,101.333 408.833,101.667 429.5,102C 436.682,104.017 441.348,108.517 443.5,115.5C 443.5,199.167 443.5,282.833 443.5,366.5C 318.167,366.5 192.833,366.5 67.5,366.5C 67.3333,250.833 67.5,135.166 68,19.5C 69.963,13.2689 74.1296,9.43561 80.5,8C 165.499,7.5 250.499,7.33334 335.5,7.5 Z"/></g>
<g><path style="opacity:1" fill="#bfcedd" d="M 335.5,7.5 C 344.504,8.17001 352.504,11.3367 359.5,17C 384.333,41.8333 409.167,66.6667 434,91.5C 439.669,98.5053 442.836,106.505 443.5,115.5C 441.348,108.517 436.682,104.017 429.5,102C 408.833,101.667 388.167,101.333 367.5,101C 358.138,97.6397 352.305,91.1397 350,81.5C 349.667,61.1667 349.333,40.8333 349,20.5C 346.558,13.8884 342.058,9.55503 335.5,7.5 Z"/></g>
<g><path style="opacity:1" fill="#5dda6f" d="M 363.5,145.5 C 333.059,163.226 302.392,180.726 271.5,198C 266.475,201.015 261.142,203.182 255.5,204.5C 252.312,204.382 249.312,203.549 246.5,202C 213.437,183.14 180.437,164.306 147.5,145.5C 147.511,143.983 148.177,142.816 149.5,142C 181.671,123.414 214.004,105.08 246.5,87C 252.5,83.6667 258.5,83.6667 264.5,87C 296.996,105.08 329.329,123.414 361.5,142C 362.823,142.816 363.489,143.983 363.5,145.5 Z"/></g>
<g><path style="opacity:1" fill="#49ba5e" d="M 147.5,145.5 C 180.437,164.306 213.437,183.14 246.5,202C 249.312,203.549 252.312,204.382 255.5,204.5C 255.5,246.833 255.5,289.167 255.5,331.5C 254.167,331.5 252.833,331.5 251.5,331.5C 218.772,314.634 186.105,297.467 153.5,280C 149.338,277.188 146.505,273.355 145,268.5C 144.333,228.833 144.333,189.167 145,149.5C 145.608,147.934 146.442,146.6 147.5,145.5 Z"/></g>
<g><path style="opacity:1" fill="#409654" d="M 363.5,145.5 C 364.558,146.6 365.392,147.934 366,149.5C 366.667,189.5 366.667,229.5 366,269.5C 364.698,273.274 362.531,276.441 359.5,279C 326.397,297.103 293.064,314.77 259.5,332C 256.633,332.801 253.966,332.634 251.5,331.5C 252.833,331.5 254.167,331.5 255.5,331.5C 255.5,289.167 255.5,246.833 255.5,204.5C 261.142,203.182 266.475,201.015 271.5,198C 302.392,180.726 333.059,163.226 363.5,145.5 Z"/></g>
<g><path style="opacity:0.994" fill="#49ba5e" d="M 67.5,366.5 C 192.833,366.5 318.167,366.5 443.5,366.5C 443.667,408.168 443.5,449.835 443,491.5C 441.037,497.731 436.87,501.564 430.5,503C 313.833,503.667 197.167,503.667 80.5,503C 74.1296,501.564 69.963,497.731 68,491.5C 67.5,449.835 67.3333,408.168 67.5,366.5 Z"/></g>
<g><path style="opacity:1" fill="#fcfefc" d="M 174.5,392.5 C 191.436,390.049 203.603,396.382 211,411.5C 212.631,431.769 212.964,452.102 212,472.5C 207.4,478.619 202.4,478.952 197,473.5C 195.571,466.281 195.071,458.947 195.5,451.5C 187.167,451.5 178.833,451.5 170.5,451.5C 170.891,458.921 170.391,466.254 169,473.5C 163.514,479.08 158.514,478.747 154,472.5C 153.333,452.833 153.333,433.167 154,413.5C 157.685,403.316 164.519,396.316 174.5,392.5 Z"/></g>
<g><path style="opacity:1" fill="#fcfdfc" d="M 234.5,392.5 C 247.574,392.057 260.574,392.557 273.5,394C 289.835,403.01 293.668,415.843 285,432.5C 280.633,438.434 274.8,441.934 267.5,443C 260.508,443.5 253.508,443.666 246.5,443.5C 246.951,453.938 246.451,464.271 245,474.5C 238.304,479.362 233.304,478.029 230,470.5C 229.333,446.5 229.333,422.5 230,398.5C 231.332,396.34 232.832,394.34 234.5,392.5 Z"/></g>
<g><path style="opacity:1" fill="#fbfdfc" d="M 323.5,399.5 C 323.171,405.206 323.505,410.872 324.5,416.5C 325.107,416.376 325.44,416.043 325.5,415.5C 334.67,407.834 344.003,400.334 353.5,393C 364.065,391.227 367.899,395.393 365,405.5C 353.312,415.356 341.479,425.022 329.5,434.5C 340.541,444.371 352.041,453.705 364,462.5C 368.412,470.015 366.412,475.015 358,477.5C 355.679,477.091 353.513,476.257 351.5,475C 342.425,467.38 333.259,459.88 324,452.5C 323.667,459.167 323.333,465.833 323,472.5C 317.208,479.408 311.874,479.074 307,471.5C 306.333,446.833 306.333,422.167 307,397.5C 309.897,392.845 314.063,391.345 319.5,393C 321.923,394.571 323.256,396.737 323.5,399.5 Z"/></g>
<g><path style="opacity:1" fill="#7ccc8a" d="M 323.5,399.5 C 324.167,404.833 324.833,410.167 325.5,415.5C 325.44,416.043 325.107,416.376 324.5,416.5C 323.505,410.872 323.171,405.206 323.5,399.5 Z"/></g>
<g><path style="opacity:1" fill="#4aba5f" d="M 177.5,409.5 C 185.514,407.761 191.347,410.428 195,417.5C 195.499,423.157 195.666,428.824 195.5,434.5C 187.167,434.5 178.833,434.5 170.5,434.5C 170.334,428.824 170.501,423.157 171,417.5C 172.305,414.039 174.471,411.372 177.5,409.5 Z"/></g>
<g><path style="opacity:1" fill="#a0daab" d="M 265.5,409.5 C 259.5,409.5 253.5,409.5 247.5,409.5C 247.5,414.833 247.5,420.167 247.5,425.5C 253.833,425.5 260.167,425.5 266.5,425.5C 260.021,426.491 253.354,426.824 246.5,426.5C 246.5,420.5 246.5,414.5 246.5,408.5C 253.022,408.177 259.355,408.51 265.5,409.5 Z"/></g>
<g><path style="opacity:1" fill="#4aba5f" d="M 265.5,409.5 C 272.239,411.653 274.073,415.986 271,422.5C 269.871,424.141 268.371,425.141 266.5,425.5C 260.167,425.5 253.833,425.5 247.5,425.5C 247.5,420.167 247.5,414.833 247.5,409.5C 253.5,409.5 259.5,409.5 265.5,409.5 Z"/></g>
</svg>
