<svg width="380" height="227" fill="none" xmlns="http://www.w3.org/2000/svg"><g clip-path="url(#a)"><rect width="380" height="227" rx="10" fill="#F0F3FA"/><rect x="89.099" y="17" width="202.801" height="48.234" rx="11.683" fill="#fff"/><g clip-path="url(#b)"><path d="M115.409 52.08c6.054 0 10.962-4.908 10.962-10.963 0-6.054-4.908-10.962-10.962-10.962-6.055 0-10.962 4.908-10.962 10.962 0 6.055 4.907 10.963 10.962 10.963Z" fill="#F0F0F0"/><path d="M126.371 41.117c0-4.713-2.975-8.731-7.149-10.28v20.56c4.174-1.548 7.149-5.566 7.149-10.28Z" fill="#D80027"/><path d="M104.447 41.117c0 4.714 2.974 8.732 7.149 10.28v-20.56c-4.175 1.549-7.149 5.567-7.149 10.28Z" fill="#0052B4"/></g><path d="M138.347 41.05h5.936v1.414h-5.936V41.05Zm.165 6.067h-1.645v-11.51h8.123v1.43h-6.478v10.08Zm8.402 0v-8.715h1.513v2.368l-.148-.592a2.677 2.677 0 0 1 1.217-1.381c.57-.318 1.272-.477 2.105-.477v1.53a1.213 1.213 0 0 0-.198-.017h-.164c-.844 0-1.513.252-2.006.756-.493.504-.74 1.233-.74 2.187v4.341h-1.579Zm11.4 0v-1.841l-.082-.346v-3.14c0-.67-.198-1.184-.592-1.546-.384-.373-.965-.56-1.743-.56a4.48 4.48 0 0 0-1.513.264 3.78 3.78 0 0 0-1.25.674l-.658-1.184a4.67 4.67 0 0 1 1.612-.822 6.674 6.674 0 0 1 1.989-.296c1.195 0 2.116.29 2.763.871.647.581.97 1.47.97 2.664v5.262h-1.496Zm-2.861.099c-.647 0-1.217-.11-1.71-.329-.483-.22-.856-.52-1.119-.904a2.347 2.347 0 0 1-.394-1.332c0-.472.109-.9.329-1.283.23-.384.597-.69 1.101-.92.516-.23 1.206-.346 2.072-.346h2.763v1.135h-2.697c-.789 0-1.321.131-1.595.394a1.274 1.274 0 0 0-.411.954c0 .427.17.773.51 1.036.339.252.811.378 1.414.378.592 0 1.107-.132 1.545-.395.45-.263.773-.646.971-1.15l.312 1.085c-.208.515-.576.926-1.102 1.233-.526.296-1.189.444-1.989.444Zm11.932-8.896c.712 0 1.337.137 1.874.411.549.274.976.69 1.283 1.25.307.559.46 1.266.46 2.121v5.015h-1.578v-4.834c0-.844-.208-1.48-.625-1.908-.406-.427-.981-.64-1.727-.64-.559 0-1.046.109-1.463.328-.417.22-.74.543-.97.97-.219.428-.329.96-.329 1.595v4.49h-1.579v-8.716h1.513v2.352l-.246-.625a3.025 3.025 0 0 1 1.315-1.332c.592-.318 1.283-.477 2.072-.477Zm10.337 8.896c-.888 0-1.682-.192-2.384-.576a4.25 4.25 0 0 1-1.628-1.578c-.395-.669-.592-1.436-.592-2.302 0-.866.197-1.634.592-2.302a4.133 4.133 0 0 1 1.628-1.563c.702-.383 1.496-.575 2.384-.575.789 0 1.491.159 2.105.477a3.263 3.263 0 0 1 1.447 1.381l-1.2.773a2.597 2.597 0 0 0-1.053-.937 2.835 2.835 0 0 0-1.315-.313c-.57 0-1.08.126-1.529.378-.45.253-.806.609-1.069 1.07-.263.449-.395.986-.395 1.61 0 .626.132 1.168.395 1.629.263.46.619.816 1.069 1.068a3.07 3.07 0 0 0 1.529.379c.471 0 .91-.1 1.315-.296a2.725 2.725 0 0 0 1.053-.954l1.2.756a3.489 3.489 0 0 1-1.447 1.398c-.614.318-1.316.477-2.105.477Zm9.348 0c-.932 0-1.754-.192-2.467-.576a4.224 4.224 0 0 1-1.644-1.578c-.384-.669-.575-1.436-.575-2.302 0-.866.186-1.634.559-2.302a4.104 4.104 0 0 1 1.562-1.563c.668-.383 1.419-.575 2.252-.575.845 0 1.59.186 2.237.56a3.89 3.89 0 0 1 1.513 1.578c.372.668.559 1.452.559 2.351 0 .066-.006.143-.017.23 0 .088-.005.17-.016.247h-7.416V42.15h6.594l-.642.395c.011-.56-.104-1.058-.345-1.496a2.567 2.567 0 0 0-1.003-1.02c-.417-.252-.904-.378-1.464-.378-.548 0-1.035.126-1.463.378a2.535 2.535 0 0 0-1.003 1.036c-.241.438-.362.943-.362 1.513v.263c0 .58.132 1.102.395 1.562.274.45.652.8 1.134 1.052.483.252 1.036.379 1.661.379.515 0 .981-.088 1.398-.264.427-.175.8-.438 1.118-.789l.872 1.02a3.82 3.82 0 0 1-1.48 1.052c-.581.241-1.234.362-1.957.362Z" fill="#5A78A6"/><rect x="257.902" y="42.096" width="3.289" height="5.481" rx="1.644" fill="#87AB49"/><rect x="264.308" y="37.711" width="3.289" height="9.866" rx="1.644" fill="#87AB49"/><rect x="270.715" y="34.423" width="3.289" height="13.155" rx="1.644" fill="#87AB49"/><g opacity=".8"><rect x="96.357" y="73.379" width="188.287" height="44.782" rx="10.847" fill="#fff"/><g clip-path="url(#c)"><path d="M130.61 105.948h-19.654c-.193 0-.351-.24-.351-.536V86.128c0-.296.158-.535.351-.535h19.654c.194 0 .351.24.351.535v19.284c0 .296-.157.536-.351.536Z" fill="#F5F5F5"/><path d="M130.961 87.158h-20.356v-1.03c0-.296.158-.535.351-.535h19.654c.194 0 .351.24.351.535v1.03Zm0 4.698h-20.356v1.566h20.356v-1.566Zm0-3.132h-20.356v1.566h20.356v-1.566Zm0 7.829h-20.005c-.193 0-.351-.24-.351-.535v-1.03h20.356v1.565Zm0 4.698h-20.356v1.566h20.356v-1.566Zm-.351 4.697h-19.654c-.193 0-.351-.24-.351-.536v-1.03h20.356v1.03c0 .296-.157.536-.351.536Zm.351-7.828h-20.356v1.565h20.356V98.12Z" fill="#FF4B55"/><path d="M119.73 85.594h-8.774c-.193 0-.351.24-.351.535v9.89c0 .295.158.535.351.535h8.774c.194 0 .351-.24.351-.536V86.13c0-.296-.157-.535-.351-.535Z" fill="#41479B"/><path d="m111.591 86.822.078.356.245.003c.032 0 .045.062.02.09l-.198.223.074.358c.01.046-.025.084-.051.056l-.199-.218-.2.218c-.026.028-.06-.01-.051-.056l.074-.358-.197-.222c-.026-.03-.013-.09.019-.091l.246-.003.077-.356c.01-.046.053-.046.063 0Zm0 1.86.078.355.245.003c.032 0 .045.063.02.091l-.198.223.074.358c.01.046-.025.084-.051.056l-.199-.218-.2.218c-.026.028-.06-.01-.051-.056l.074-.358-.197-.222c-.026-.03-.013-.091.019-.092l.246-.002.077-.356c.01-.046.053-.046.063 0Zm0 1.86.078.356.245.002c.032 0 .045.063.02.092l-.198.222.074.358c.01.046-.025.084-.051.056l-.199-.218-.2.218c-.026.028-.06-.01-.051-.056l.074-.358-.197-.222c-.026-.03-.013-.091.019-.091l.246-.003.077-.356c.01-.046.053-.046.063 0Zm0 1.861.078.355.245.003c.032 0 .045.062.02.091l-.198.223.074.357c.01.046-.025.085-.051.056l-.199-.218-.2.219c-.026.028-.06-.01-.051-.057l.074-.357-.197-.223c-.026-.029-.013-.09.019-.091l.246-.003.077-.355c.01-.047.053-.047.063 0Zm0 1.859.078.356.245.003c.032 0 .045.062.02.09l-.198.224.074.357c.01.046-.025.085-.051.056l-.199-.218-.2.218c-.026.029-.06-.01-.051-.056l.074-.357-.197-.223c-.026-.029-.013-.09.019-.091l.246-.003.077-.356c.01-.046.053-.046.063 0Zm.946-6.528.078.356.246.002c.031 0 .045.063.019.091l-.198.223.075.358c.009.046-.025.084-.051.056l-.2-.218-.2.218c-.026.028-.06-.01-.051-.056l.074-.358-.197-.223c-.026-.028-.013-.09.019-.09l.246-.004.078-.355c.01-.046.052-.046.062 0Zm0 1.86.078.356.246.003c.031 0 .045.062.019.09l-.198.223.075.358c.009.046-.025.084-.051.056l-.2-.218-.2.218c-.026.028-.06-.01-.051-.056l.074-.358-.197-.222c-.026-.03-.013-.091.019-.091l.246-.003.078-.356c.01-.046.052-.046.062 0Zm0 1.86.078.356.246.003c.031 0 .045.062.019.09l-.198.223.075.358c.009.046-.025.084-.051.056l-.2-.218-.2.218c-.026.028-.06-.01-.051-.056l.074-.358-.197-.222c-.026-.03-.013-.09.019-.091l.246-.003.078-.356c.01-.046.052-.046.062 0Zm0 1.86.078.356.246.003c.031 0 .045.062.019.09l-.198.224.075.357c.009.046-.025.085-.051.056l-.2-.218-.2.218c-.026.028-.06-.01-.051-.056l.074-.357-.197-.223c-.026-.029-.013-.09.019-.091l.246-.003.078-.356c.01-.046.052-.046.062 0Zm.946-6.492.078.355.246.003c.031 0 .045.063.019.091l-.198.223.075.358c.009.046-.025.084-.051.056l-.2-.218-.2.218c-.026.028-.06-.01-.051-.056l.074-.358-.197-.222c-.026-.03-.012-.091.019-.092l.246-.003.078-.355c.01-.046.052-.046.062 0Zm0 1.86.078.355.246.003c.031 0 .045.063.019.091l-.198.223.075.358c.009.046-.025.084-.051.056l-.2-.218-.2.218c-.026.028-.06-.01-.051-.056l.074-.358-.197-.222c-.026-.03-.012-.091.019-.092l.246-.003.078-.355c.01-.046.052-.046.062 0Zm0 1.86.078.356.246.002c.031 0 .045.063.019.092l-.198.222.075.358c.009.046-.025.084-.051.056l-.2-.218-.2.218c-.026.028-.06-.01-.051-.056l.074-.358-.197-.222c-.026-.03-.012-.091.019-.092l.246-.002.078-.356c.01-.046.052-.046.062 0Zm0 1.86.078.356.246.003c.031 0 .045.062.019.09l-.198.224.075.357c.009.046-.025.084-.051.056l-.2-.218-.2.218c-.026.028-.06-.01-.051-.056l.074-.358-.197-.222c-.026-.03-.012-.09.019-.091l.246-.003.078-.356c.01-.046.052-.046.062 0Zm0 1.86.078.356.246.003c.031 0 .045.062.019.091l-.198.223.075.357c.009.046-.025.085-.051.056l-.2-.218-.2.218c-.026.028-.06-.01-.051-.056l.074-.357-.197-.223c-.026-.029-.012-.09.019-.091l.246-.003.078-.356c.01-.046.052-.046.062 0Zm.946-6.528.077.356.246.002c.032 0 .045.063.019.091l-.197.223.074.358c.009.046-.025.084-.051.056l-.2-.218-.199.218c-.026.028-.061-.01-.051-.056l.074-.358-.198-.223c-.025-.028-.012-.09.02-.09l.245-.004.078-.355c.01-.046.053-.046.063 0Zm0 1.86.077.356.246.003c.032 0 .045.062.019.09l-.197.223.074.358c.009.046-.025.084-.051.056l-.2-.218-.199.218c-.026.028-.061-.01-.051-.056l.074-.358-.198-.222c-.025-.03-.012-.091.02-.091l.245-.003.078-.356c.01-.046.053-.046.063 0Zm0 1.86.077.356.246.003c.032 0 .045.062.019.09l-.197.223.074.358c.009.046-.025.084-.051.056l-.2-.218-.199.218c-.026.028-.061-.01-.051-.056l.074-.358-.198-.222c-.025-.03-.012-.09.02-.091l.245-.003.078-.356c.01-.046.053-.046.063 0Zm0 1.86.077.356.246.003c.032 0 .045.062.019.09l-.197.224.074.357c.009.046-.025.085-.051.056l-.2-.218-.199.218c-.026.028-.061-.01-.051-.056l.074-.357-.198-.223c-.025-.029-.012-.09.02-.091l.245-.003.078-.356c.01-.046.053-.046.063 0Zm.946-6.492.078.355.245.003c.032 0 .045.063.02.091l-.198.223.074.358c.01.046-.025.084-.051.056l-.199-.218-.2.218c-.026.028-.061-.01-.051-.056l.074-.358-.197-.222c-.026-.03-.013-.091.019-.092l.246-.003.077-.355c.01-.046.053-.046.063 0Zm0 1.86.078.355.245.003c.032 0 .045.063.02.091l-.198.223.074.358c.01.046-.025.084-.051.056l-.199-.218-.2.218c-.026.028-.061-.01-.051-.056l.074-.358-.197-.222c-.026-.03-.013-.091.019-.092l.246-.003.077-.355c.01-.046.053-.046.063 0Zm0 1.86.078.356.245.002c.032 0 .045.063.02.092l-.198.222.074.358c.01.046-.025.084-.051.056l-.199-.218-.2.218c-.026.028-.061-.01-.051-.056l.074-.358-.197-.222c-.026-.03-.013-.091.019-.092l.246-.002.077-.356c.01-.046.053-.046.063 0Zm0 1.86.078.356.245.003c.032 0 .045.062.02.09l-.198.224.074.357c.01.046-.025.084-.051.056l-.199-.218-.2.218c-.026.028-.061-.01-.051-.056l.074-.358-.197-.222c-.026-.03-.013-.09.019-.091l.246-.003.077-.356c.01-.046.053-.046.063 0Zm0 1.86.078.356.245.003c.032 0 .045.062.02.091l-.198.223.074.357c.01.046-.025.085-.051.056l-.199-.218-.2.218c-.026.028-.061-.01-.051-.056l.074-.357-.197-.223c-.026-.029-.013-.09.019-.091l.246-.003.077-.356c.01-.046.053-.046.063 0Zm.946-6.528.078.356.245.002c.032 0 .045.063.02.091l-.198.223.074.358c.01.046-.025.084-.051.056l-.199-.218-.2.218c-.026.028-.061-.01-.051-.056l.074-.358-.197-.223c-.026-.028-.013-.09.019-.09l.246-.004.077-.355c.01-.046.053-.046.063 0Zm0 1.86.078.356.245.003c.032 0 .045.062.02.09l-.198.223.074.358c.01.046-.025.084-.051.056l-.199-.218-.2.218c-.026.028-.061-.01-.051-.056l.074-.358-.197-.222c-.026-.03-.013-.091.019-.091l.246-.003.077-.356c.01-.046.053-.046.063 0Zm0 1.86.078.356.245.003c.032 0 .045.062.02.09l-.198.223.074.358c.01.046-.025.084-.051.056l-.199-.218-.2.218c-.026.028-.061-.01-.051-.056l.074-.358-.197-.222c-.026-.03-.013-.09.019-.091l.246-.003.077-.356c.01-.046.053-.046.063 0Zm0 1.86.078.356.245.003c.032 0 .045.062.02.09l-.198.224.074.357c.01.046-.025.085-.051.056l-.199-.218-.2.218c-.026.028-.061-.01-.051-.056l.074-.357-.197-.223c-.026-.029-.013-.09.019-.091l.246-.003.077-.356c.01-.046.053-.046.063 0Zm.945-6.492.078.355.246.003c.031 0 .045.063.019.091l-.198.223.075.358c.009.046-.025.084-.051.056l-.2-.218-.2.218c-.026.028-.06-.01-.051-.056l.074-.358-.197-.222c-.026-.03-.013-.091.019-.092l.246-.003.078-.355c.01-.046.052-.046.062 0Zm0 1.86.078.355.246.003c.031 0 .045.063.019.091l-.198.223.075.358c.009.046-.025.084-.051.056l-.2-.218-.2.218c-.026.028-.06-.01-.051-.056l.074-.358-.197-.222c-.026-.03-.013-.091.019-.092l.246-.003.078-.355c.01-.046.052-.046.062 0Zm0 1.86.078.356.246.002c.031 0 .045.063.019.092l-.198.222.075.358c.009.046-.025.084-.051.056l-.2-.218-.2.218c-.026.028-.06-.01-.051-.056l.074-.358-.197-.222c-.026-.03-.013-.091.019-.092l.246-.002.078-.356c.01-.046.052-.046.062 0Zm0 1.86.078.356.246.003c.031 0 .045.062.019.09l-.198.224.075.357c.009.046-.025.084-.051.056l-.2-.218-.2.218c-.026.028-.06-.01-.051-.056l.074-.358-.197-.222c-.026-.03-.013-.09.019-.091l.246-.003.078-.356c.01-.046.052-.046.062 0Zm0 1.86.078.356.246.003c.031 0 .045.062.019.091l-.198.223.075.357c.009.046-.025.085-.051.056l-.2-.218-.2.218c-.026.028-.06-.01-.051-.056l.074-.357-.197-.223c-.026-.029-.013-.09.019-.091l.246-.003.078-.356c.01-.046.052-.046.062 0Zm.947-6.528.077.356.246.002c.032 0 .045.063.019.091l-.197.223.074.358c.009.046-.025.084-.051.056l-.2-.218-.2.218c-.025.028-.06-.01-.05-.056l.074-.358-.198-.223c-.025-.028-.012-.09.02-.09l.245-.004.078-.355c.01-.046.053-.046.063 0Zm0 1.86.077.356.246.003c.032 0 .045.062.019.09l-.197.223.074.358c.009.046-.025.084-.051.056l-.2-.218-.2.218c-.025.028-.06-.01-.05-.056l.074-.358-.198-.222c-.025-.03-.012-.091.02-.091l.245-.003.078-.356c.01-.046.053-.046.063 0Zm0 1.86.077.356.246.003c.032 0 .045.062.019.09l-.197.223.074.358c.009.046-.025.084-.051.056l-.2-.218-.2.218c-.025.028-.06-.01-.05-.056l.074-.358-.198-.222c-.025-.03-.012-.09.02-.091l.245-.003.078-.356c.01-.046.053-.046.063 0Zm0 1.86.077.356.246.003c.032 0 .045.062.019.091l-.197.223.074.357c.009.046-.025.085-.051.056l-.2-.218-.2.218c-.025.029-.06-.01-.05-.056l.074-.357-.198-.223c-.025-.029-.012-.09.02-.091l.245-.003.078-.356c.01-.045.053-.045.063 0Zm.945-6.492.078.355.246.003c.031 0 .045.063.019.091l-.198.223.075.358c.009.046-.025.084-.051.056l-.2-.218-.2.218c-.026.028-.06-.01-.051-.056l.075-.358-.198-.222c-.026-.03-.012-.091.019-.092l.246-.003.078-.355c.01-.046.052-.046.062 0Zm0 1.86.078.355.246.003c.031 0 .045.063.019.091l-.198.223.075.358c.009.046-.025.084-.051.056l-.2-.218-.2.218c-.026.028-.06-.01-.051-.056l.075-.358-.198-.222c-.026-.03-.012-.091.019-.092l.246-.003.078-.355c.01-.046.052-.046.062 0Zm0 1.86.078.356.246.002c.031 0 .045.063.019.092l-.198.222.075.358c.009.046-.025.084-.051.056l-.2-.218-.2.218c-.026.028-.06-.01-.051-.056l.075-.358-.198-.222c-.026-.03-.012-.091.019-.092l.246-.002.078-.356c.01-.046.052-.046.062 0Zm0 1.86.078.356.246.003c.031 0 .045.062.019.09l-.198.224.075.357c.009.046-.025.084-.051.056l-.2-.218-.2.218c-.026.028-.06-.01-.051-.056l.075-.358-.198-.222c-.026-.03-.012-.09.019-.091l.246-.003.078-.356c.01-.046.052-.046.062 0Zm0 1.86.078.356.246.003c.031 0 .045.062.019.091l-.198.223.075.357c.009.046-.025.085-.051.056l-.2-.218-.2.218c-.026.028-.06-.01-.051-.056l.075-.357-.198-.223c-.026-.029-.012-.09.019-.091l.246-.003.078-.356c.01-.046.052-.046.062 0Z" fill="#F5F5F5"/></g><path d="M145.133 101.392c-1.404 0-2.509-.402-3.313-1.206-.804-.804-1.206-1.98-1.206-3.526v-6.076h1.527v6.015c0 1.19.26 2.06.779 2.61.529.55 1.272.825 2.229.825.966 0 1.709-.275 2.228-.825.53-.55.794-1.42.794-2.61v-6.015h1.481v6.076c0 1.547-.402 2.722-1.206 3.526-.794.804-1.898 1.206-3.313 1.206Zm10.763 0a7.434 7.434 0 0 1-2.335-.366c-.743-.254-1.329-.58-1.756-.977l.565-1.19c.407.355.926.65 1.557.885a5.619 5.619 0 0 0 1.969.351c.621 0 1.125-.072 1.512-.214.387-.142.672-.336.855-.58a1.43 1.43 0 0 0 .275-.855c0-.366-.123-.662-.367-.885-.234-.224-.544-.403-.931-.535a9.175 9.175 0 0 0-1.252-.366 25.232 25.232 0 0 1-1.389-.351 6.743 6.743 0 0 1-1.267-.535 2.632 2.632 0 0 1-.916-.855c-.234-.366-.351-.834-.351-1.404 0-.55.142-1.053.427-1.511.295-.469.743-.84 1.343-1.115.611-.285 1.385-.427 2.321-.427.621 0 1.237.081 1.847.244.611.163 1.14.397 1.588.702l-.504 1.221a4.76 4.76 0 0 0-1.45-.656 5.486 5.486 0 0 0-1.481-.214c-.601 0-1.094.077-1.481.23-.387.152-.672.355-.855.61-.173.254-.259.54-.259.855 0 .376.117.677.351.9.244.225.554.403.931.535.387.132.809.254 1.267.366.458.102.916.22 1.374.351.468.133.891.306 1.267.52.387.213.697.498.932.854.234.357.351.815.351 1.374 0 .54-.148 1.044-.443 1.512-.295.458-.753.829-1.374 1.114-.611.275-1.384.412-2.321.412Zm4.75-.122 4.839-10.686h1.512l4.854 10.686h-1.603l-4.32-9.831h.611l-4.321 9.831h-1.572Zm2.061-2.671.412-1.222h6.015l.443 1.222h-6.87Z" fill="#5A78A6"/><rect x="253.223" y="96.397" width="3.053" height="5.089" rx="1.527" fill="#87AB49"/><rect x="259.17" y="92.326" width="3.053" height="9.16" rx="1.527" fill="#87AB49"/><rect x="265.119" y="89.273" width="3.053" height="12.213" rx="1.527" fill="#87AB49"/></g><g opacity=".6"><rect x="108.798" y="126.306" width="163.403" height="38.864" rx="9.413" fill="#fff"/><g clip-path="url(#d)"><path d="M116.73 136.906h26.569v17.712H116.73v-17.712Z" fill="#006"/><path d="M116.73 136.906v1.98l23.599 15.732h2.97v-1.98L119.7 136.906h-2.97Zm26.569 0v1.98L119.7 154.618h-2.97v-1.98l23.599-15.732h2.97Z" fill="#fff"/><path d="M127.8 136.906v17.712h4.429v-17.712H127.8Zm-11.07 5.904v5.904h26.569v-5.904H116.73Z" fill="#fff"/><path d="M116.73 143.991v3.542h26.569v-3.542H116.73Zm11.956-7.085v17.712h2.657v-17.712h-2.657Zm-11.956 17.712 8.856-5.904h1.981l-8.857 5.904h-1.98Zm0-17.712 8.856 5.904h-1.98l-6.876-4.584v-1.32Zm15.732 5.904 8.857-5.904h1.98l-8.856 5.904h-1.981Zm10.837 11.808-8.856-5.904h1.98l6.876 4.584v1.32Z" fill="#C00"/></g><path d="M151.129 150.844c-1.219 0-2.178-.349-2.875-1.047-.698-.697-1.047-1.718-1.047-3.06v-5.273h1.325v5.22c0 1.033.225 1.788.675 2.265.46.477 1.105.716 1.935.716.839 0 1.484-.239 1.934-.716.459-.477.689-1.232.689-2.265v-5.22h1.285v5.273c0 1.342-.349 2.363-1.046 3.06-.689.698-1.648 1.047-2.875 1.047Zm7.803-2.345-.066-1.616 5.26-5.419h1.51l-4.067 4.292-.742.822-1.895 1.921Zm-1.165 2.239v-9.274h1.324v9.274h-1.324Zm6.571 0-3.802-4.425.887-.981 4.465 5.406h-1.55Z" fill="#5A78A6"/><rect x="244.916" y="146.19" width="2.65" height="4.416" rx="1.325" fill="#87AB49"/><rect x="250.077" y="142.657" width="2.65" height="7.949" rx="1.325" fill="#87AB49"/><rect x="255.24" y="140.007" width="2.65" height="10.599" rx="1.325" fill="#87AB49"/></g><g opacity=".4"><rect x="119" y="173.315" width="143" height="34.011" rx="8.238" fill="#fff"/><g clip-path="url(#e)"><path d="M130.302 193.009a7.732 7.732 0 0 0 14.498 0l-7.249-.672-7.249.672Z" fill="#FFDA44"/><path d="M137.551 182.591a7.733 7.733 0 0 0-7.249 5.041l7.249.672 7.249-.672a7.732 7.732 0 0 0-7.249-5.041Z" fill="#000"/><path d="M130.302 187.632a7.727 7.727 0 0 0-.48 2.689c0 .945.17 1.851.48 2.688H144.8a7.704 7.704 0 0 0 .481-2.688c0-.946-.17-1.852-.481-2.689h-14.498Z" fill="#D80027"/></g><path d="M156.346 194.414a4.794 4.794 0 0 1-1.727-.302 4.187 4.187 0 0 1-1.369-.869 4.115 4.115 0 0 1-.904-1.322 4.156 4.156 0 0 1-.325-1.658c0-.603.109-1.156.325-1.658.216-.503.518-.939.904-1.311a4.088 4.088 0 0 1 1.38-.869 4.67 4.67 0 0 1 1.739-.313c.642 0 1.229.104 1.763.313.533.209.985.522 1.356.939l-.719.719a3.102 3.102 0 0 0-1.089-.707 3.367 3.367 0 0 0-1.264-.232 3.58 3.58 0 0 0-1.299.232 3.16 3.16 0 0 0-1.032.649c-.286.278-.51.611-.672.997a3.245 3.245 0 0 0-.232 1.241c0 .44.077.854.232 1.24.162.379.386.711.672.997.294.279.638.495 1.032.65.394.154.823.232 1.287.232a3.91 3.91 0 0 0 1.241-.197 3.14 3.14 0 0 0 1.113-.685l.661.882c-.402.34-.874.599-1.415.776a5.395 5.395 0 0 1-1.658.256Zm1.96-1.183v-3.015h1.113v3.166l-1.113-.151Zm5.907 1.159c-.657 0-1.237-.135-1.74-.405a2.98 2.98 0 0 1-1.159-1.114c-.271-.471-.406-1.012-.406-1.623 0-.61.132-1.151.394-1.623a2.892 2.892 0 0 1 1.102-1.101 3.128 3.128 0 0 1 1.588-.406c.596 0 1.121.131 1.577.394.456.263.812.634 1.067 1.113.263.472.394 1.024.394 1.658 0 .046-.004.101-.011.162 0 .062-.004.12-.012.174h-5.229v-.8h4.649l-.452.279a2.067 2.067 0 0 0-.243-1.056 1.811 1.811 0 0 0-.708-.718 1.949 1.949 0 0 0-1.032-.267c-.386 0-.73.089-1.032.267a1.79 1.79 0 0 0-.707.73c-.17.309-.255.665-.255 1.067v.185c0 .41.093.777.278 1.102.194.317.46.564.8.742.34.178.731.266 1.171.266.364 0 .692-.061.986-.185.301-.124.564-.309.788-.557l.615.719a2.674 2.674 0 0 1-1.044.742c-.409.17-.869.255-1.379.255Zm4.363-.069v-6.145h1.066v1.669l-.104-.417c.17-.425.456-.75.858-.974.402-.224.897-.336 1.484-.336v1.078a.816.816 0 0 0-.139-.012h-.116c-.595 0-1.067.178-1.414.534-.348.355-.522.869-.522 1.542v3.061h-1.113Zm12.363-6.203c.495 0 .932.096 1.31.29.379.193.673.487.882.881.216.394.324.893.324 1.495v3.537h-1.113v-3.409c0-.595-.139-1.044-.417-1.345-.278-.301-.669-.452-1.171-.452-.371 0-.696.077-.974.232a1.58 1.58 0 0 0-.649.684c-.147.301-.221.676-.221 1.124v3.166h-1.113v-3.409c0-.595-.139-1.044-.417-1.345-.271-.301-.661-.452-1.171-.452-.364 0-.684.077-.963.232a1.586 1.586 0 0 0-.649.684c-.155.301-.232.676-.232 1.124v3.166h-1.113v-6.145h1.067v1.635l-.174-.418c.193-.402.491-.715.893-.939.402-.224.869-.336 1.403-.336.587 0 1.093.147 1.518.44.426.286.704.723.835 1.31l-.452-.185c.186-.472.51-.85.974-1.136.464-.286 1.005-.429 1.623-.429Zm8.379 6.203v-1.299l-.058-.243v-2.215c0-.471-.139-.835-.417-1.09-.271-.263-.681-.394-1.229-.394-.364 0-.719.062-1.067.186a2.658 2.658 0 0 0-.881.475l-.464-.835a3.305 3.305 0 0 1 1.136-.58 4.713 4.713 0 0 1 1.403-.208c.843 0 1.492.205 1.948.614.456.41.684 1.036.684 1.879v3.71h-1.055Zm-2.017.069c-.456 0-.858-.077-1.206-.232a1.866 1.866 0 0 1-.789-.637 1.66 1.66 0 0 1-.278-.939c0-.333.077-.634.232-.905.162-.27.421-.487.777-.649.363-.162.85-.244 1.461-.244h1.948v.8h-1.902c-.556 0-.931.093-1.125.279a.896.896 0 0 0-.289.672.88.88 0 0 0 .359.731c.24.177.572.266.997.266.417 0 .781-.092 1.09-.278.317-.185.545-.456.684-.812l.22.766a1.756 1.756 0 0 1-.776.869c-.372.209-.839.313-1.403.313Zm8.413-6.272c.503 0 .943.096 1.322.29.387.193.688.487.904.881.217.394.325.893.325 1.495v3.537h-1.113v-3.409c0-.595-.147-1.044-.441-1.345-.286-.301-.691-.452-1.217-.452-.394 0-.738.077-1.032.232a1.612 1.612 0 0 0-.684.684c-.155.301-.232.676-.232 1.124v3.166h-1.113v-6.145h1.067v1.658l-.174-.441c.201-.402.51-.715.927-.939.418-.224.905-.336 1.461-.336Zm4.764 8.522c-.293 0-.579-.051-.858-.151a1.965 1.965 0 0 1-.718-.417l.475-.835c.155.147.325.259.51.336.186.077.383.116.591.116.271 0 .495-.07.673-.209.178-.139.344-.386.499-.742l.382-.846.116-.139 2.412-5.577h1.09l-2.98 6.759c-.178.433-.379.773-.603 1.021a1.824 1.824 0 0 1-.719.521 2.25 2.25 0 0 1-.87.163Zm1.461-2.122-2.806-6.342h1.16l2.388 5.472-.742.87Z" fill="#5A78A6"/><rect x="238.744" y="191.088" width="2.319" height="3.865" rx="1.159" fill="#87AB49"/><rect x="243.261" y="187.996" width="2.319" height="6.957" rx="1.159" fill="#87AB49"/><rect x="247.779" y="185.677" width="2.319" height="9.276" rx="1.159" fill="#87AB49"/></g><g opacity=".2"><rect x="133" y="215.471" width="115" height="27.351" rx="6.625" fill="#fff"/><g clip-path="url(#f)"><path d="M154.135 229.147c0-.76-.137-1.489-.387-2.162l-5.829-.27-5.83.27a6.198 6.198 0 0 0-.386 2.162c0 .76.136 1.489.386 2.162l5.83.27 5.829-.27c.25-.673.387-1.402.387-2.162Z" fill="#fff"/><path d="M142.089 226.985h11.66a6.22 6.22 0 0 0-11.66 0Z" fill="#AE1C28"/></g><path d="M160.087 232.647v-6.527h.765l4.317 5.362h-.401v-5.362h.932v6.527h-.764l-4.317-5.361h.401v5.361h-.933Zm9.637.056c-.528 0-.994-.109-1.399-.326a2.403 2.403 0 0 1-.932-.895 2.576 2.576 0 0 1-.326-1.306c0-.491.105-.926.317-1.305.217-.379.513-.675.886-.886a2.515 2.515 0 0 1 1.277-.326c.479 0 .901.105 1.268.317.367.211.653.509.858.895.211.379.317.824.317 1.333 0 .038-.003.081-.009.131 0 .05-.004.096-.01.14h-4.205v-.644h3.739l-.364.224c.007-.317-.059-.6-.195-.848a1.46 1.46 0 0 0-.569-.579 1.57 1.57 0 0 0-.83-.214c-.311 0-.587.071-.83.214a1.446 1.446 0 0 0-.569.588 1.759 1.759 0 0 0-.205.858v.149c0 .329.075.625.224.886.155.255.37.453.643.596.274.143.588.215.942.215.292 0 .556-.05.793-.149.242-.1.453-.249.634-.448l.494.578c-.224.261-.504.46-.839.597-.33.137-.7.205-1.11.205Zm5.206 0c-.497 0-.883-.133-1.156-.401-.274-.267-.411-.649-.411-1.147v-4.531h.896v4.494c0 .267.065.472.195.615.137.143.33.215.579.215.279 0 .512-.078.699-.233l.28.643a1.303 1.303 0 0 1-.495.261 2.027 2.027 0 0 1-.587.084Zm-2.406-4.261v-.737h3.152v.737h-3.152Zm7.209-.783c.404 0 .758.077 1.063.233.31.155.553.391.727.708.174.317.261.718.261 1.203v2.844h-.895v-2.741c0-.479-.118-.839-.355-1.082-.23-.242-.556-.363-.979-.363-.317 0-.593.062-.829.186-.237.124-.42.308-.551.55-.124.243-.186.544-.186.905v2.545h-.895v-6.918h.895v3.31l-.177-.355a1.71 1.71 0 0 1 .746-.755c.335-.18.727-.27 1.175-.27Zm5.908 5.044c-.528 0-.995-.109-1.399-.326a2.403 2.403 0 0 1-.932-.895 2.576 2.576 0 0 1-.326-1.306c0-.491.105-.926.317-1.305.217-.379.512-.675.885-.886.38-.218.805-.326 1.278-.326.479 0 .901.105 1.268.317.367.211.653.509.858.895.211.379.317.824.317 1.333 0 .038-.003.081-.009.131 0 .05-.004.096-.01.14h-4.205v-.644h3.739l-.364.224c.007-.317-.059-.6-.195-.848a1.46 1.46 0 0 0-.569-.579 1.57 1.57 0 0 0-.83-.214c-.311 0-.588.071-.83.214a1.446 1.446 0 0 0-.569.588 1.748 1.748 0 0 0-.205.858v.149c0 .329.075.625.224.886.155.255.37.453.643.596.274.143.588.215.942.215.292 0 .556-.05.793-.149.242-.1.453-.249.634-.448l.494.578c-.224.261-.504.46-.839.597-.33.137-.7.205-1.11.205Zm3.509-.056v-4.942h.858v1.343l-.084-.336a1.51 1.51 0 0 1 .69-.783c.323-.18.721-.27 1.193-.27v.867a.695.695 0 0 0-.112-.009h-.093c-.479 0-.858.143-1.137.428-.28.286-.42.7-.42 1.241v2.461h-.895Zm3.761 0v-6.918h.895v6.918h-.895Zm5.671 0v-1.044l-.046-.196v-1.781c0-.379-.112-.671-.336-.876-.217-.212-.547-.317-.988-.317-.292 0-.578.049-.858.149-.28.093-.516.22-.709.382l-.373-.671a2.64 2.64 0 0 1 .914-.466 3.785 3.785 0 0 1 1.128-.168c.678 0 1.2.164 1.567.494.367.329.55.833.55 1.51v2.984h-.849Zm-1.622.056c-.367 0-.69-.062-.97-.186a1.51 1.51 0 0 1-.634-.513 1.334 1.334 0 0 1-.224-.755c0-.268.063-.51.187-.728.13-.217.339-.391.625-.522.292-.13.683-.196 1.175-.196h1.566v.644h-1.529c-.448 0-.749.074-.905.223a.726.726 0 0 0-.233.541.71.71 0 0 0 .289.588c.193.143.46.214.802.214.336 0 .628-.074.877-.224.255-.149.438-.366.55-.652l.177.615a1.411 1.411 0 0 1-.625.699c-.298.168-.674.252-1.128.252Zm6.766-5.044a2.3 2.3 0 0 1 1.063.233c.311.155.554.391.728.708.174.317.261.718.261 1.203v2.844h-.895v-2.741c0-.479-.119-.839-.355-1.082-.23-.242-.556-.363-.979-.363-.317 0-.594.062-.83.186a1.308 1.308 0 0 0-.55.55c-.124.243-.186.544-.186.905v2.545h-.895v-4.942h.857v1.334l-.14-.355c.162-.323.411-.575.746-.755.336-.18.728-.27 1.175-.27Zm5.75 5.044a2.6 2.6 0 0 1-1.286-.317 2.32 2.32 0 0 1-.886-.886c-.218-.379-.327-.82-.327-1.324 0-.503.109-.941.327-1.314a2.32 2.32 0 0 1 .886-.886 2.589 2.589 0 0 1 1.286-.317c.417 0 .793.093 1.129.279.335.187.602.467.801.84.206.373.308.839.308 1.398 0 .56-.099 1.026-.298 1.399a2.012 2.012 0 0 1-.793.848c-.336.187-.718.28-1.147.28Zm.075-.783c.311 0 .59-.072.839-.215.255-.143.454-.345.597-.606.149-.267.224-.575.224-.923 0-.354-.075-.659-.224-.914a1.514 1.514 0 0 0-.597-.606 1.652 1.652 0 0 0-.839-.214c-.317 0-.6.071-.849.214a1.6 1.6 0 0 0-.596.606c-.15.255-.224.56-.224.914 0 .348.074.656.224.923a1.6 1.6 0 0 0 .596.606c.249.143.532.215.849.215Zm1.688.727v-1.333l.056-1.147-.094-1.147v-3.291h.895v6.918h-.857Zm3.968.056c-.41 0-.802-.056-1.174-.168-.367-.112-.656-.248-.868-.41l.373-.709c.212.143.473.265.784.364.31.1.627.149.951.149.416 0 .715-.059.895-.177a.556.556 0 0 0 .28-.494.434.434 0 0 0-.168-.364 1.154 1.154 0 0 0-.448-.196 6.4 6.4 0 0 0-.606-.111 13.019 13.019 0 0 1-.671-.131 3.027 3.027 0 0 1-.616-.224 1.212 1.212 0 0 1-.447-.401c-.112-.174-.168-.404-.168-.69 0-.298.084-.559.252-.783.167-.224.404-.395.708-.513.311-.124.678-.186 1.101-.186.323 0 .649.04.979.121.335.075.609.183.82.326l-.382.709a2.122 2.122 0 0 0-.699-.308 3.228 3.228 0 0 0-.728-.084c-.391 0-.684.066-.876.196-.193.124-.289.286-.289.485 0 .168.056.298.168.392.118.087.267.155.447.205.187.049.392.093.615.13.224.031.448.075.672.131.224.05.426.121.606.214.186.094.336.224.447.392.119.168.178.392.178.671a1.2 1.2 0 0 1-.261.774c-.174.218-.42.389-.737.513-.317.118-.696.177-1.138.177Z" fill="#5A78A6"/><rect x="235.914" y="225.742" width="1.865" height="7.459" rx=".932" fill="#87AB49"/></g><path opacity=".1" d="M19.525 227v-8.147l26.034-24.722c2.185-2.061 3.808-3.871 4.87-5.432 1.06-1.561 1.747-2.997 2.06-4.308.374-1.373.561-2.653.561-3.839 0-2.997-1.03-5.307-3.09-6.93-2.06-1.685-5.088-2.528-9.084-2.528-3.183 0-6.087.562-8.709 1.685-2.56 1.124-4.776 2.841-6.648 5.151l-8.522-6.555c2.56-3.434 5.993-6.087 10.3-7.96 4.371-1.935 9.24-2.903 14.61-2.903 4.744 0 8.865.78 12.36 2.341 3.56 1.498 6.275 3.652 8.148 6.462 1.935 2.809 2.903 6.149 2.903 10.02 0 2.122-.281 4.245-.843 6.367-.562 2.061-1.623 4.246-3.184 6.556-1.56 2.31-3.84 4.9-6.836 7.772l-22.381 21.258-2.529-4.589h38.301V227h-48.32Z" fill="#233654"/></g><defs><clipPath id="a"><rect width="380" height="227" rx="10" fill="#fff"/></clipPath><clipPath id="b"><path fill="#fff" transform="translate(104.447 30.155)" d="M0 0h21.924v21.924H0z"/></clipPath><clipPath id="c"><rect x="110.605" y="85.593" width="20.355" height="20.355" rx="10.178" fill="#fff"/></clipPath><clipPath id="d"><rect x="121.164" y="136.906" width="17.665" height="17.665" rx="8.833" fill="#fff"/></clipPath><clipPath id="e"><path fill="#fff" transform="translate(129.822 182.591)" d="M0 0h15.46v15.46H0z"/></clipPath><clipPath id="f"><path fill="#fff" transform="translate(141.703 222.931)" d="M0 0h12.432v12.432H0z"/></clipPath></defs></svg>