<svg width="380" height="227" fill="none" xmlns="http://www.w3.org/2000/svg"><g clip-path="url(#a)"><rect width="380" height="227" rx="10" fill="#F1F4FB"/><path opacity=".1" d="M40.97 227.936a47.63 47.63 0 0 1-13.578-1.966c-4.37-1.374-8.054-3.246-11.05-5.619l5.244-9.458c2.372 1.935 5.244 3.496 8.615 4.682 3.371 1.186 6.898 1.78 10.582 1.78 4.37 0 7.772-.874 10.207-2.623 2.435-1.81 3.652-4.245 3.652-7.304 0-2.997-1.123-5.369-3.37-7.117-2.248-1.748-5.87-2.622-10.864-2.622h-5.993v-8.334l18.729-22.288 1.592 4.589h-35.21v-10.208h44.668v8.147l-18.729 22.288-6.368-3.746h3.652c8.054 0 14.078 1.811 18.074 5.432 4.058 3.558 6.087 8.147 6.087 13.765 0 3.684-.937 7.086-2.81 10.208-1.872 3.121-4.744 5.65-8.615 7.585-3.808 1.873-8.646 2.809-14.515 2.809Z" fill="#233654"/><path d="M284.919 44.722V155.31a8.72 8.72 0 0 1-8.722 8.722H104.563a8.72 8.72 0 0 1-8.722-8.722V44.722A8.72 8.72 0 0 1 104.563 36h171.634a8.72 8.72 0 0 1 8.722 8.722Z" fill="#fff"/><path d="M280.157 43.951H100.603v108.191h179.554V43.952Z" fill="#D7DEED"/><path d="M323.76 185.649H57l40.001-26.105h186.758l40.001 26.105Z" fill="#fff"/><path d="m90.278 174.744 18.452-12.049h164.842l18.451 12.049H90.278Z" fill="#3E464D"/><path d="M294.595 174.744H87.707l18.917-12.049h169.054l18.917 12.049Z" fill="#F1F4FB"/><path d="M218.034 182.902h-55.301l10.638-6.777h34.026l10.637 6.777Z" fill="#626B73"/><path d="M231.861 182.902h-82.955l15.956-6.777h51.043l15.956 6.777Z" fill="#F0F3FA"/><path d="M323.302 185.649s-2.213 4.464-6.097 5.006H63.547c-3.884-.542-6.097-5.006-6.097-5.006h265.852ZM190.388 62.563c-5.8 0-10.508 4.716-10.508 10.515 0 5.792 4.708 10.508 10.508 10.508 5.791 0 10.507-4.716 10.507-10.508-.007-5.8-4.716-10.515-10.507-10.515Zm0 18.46c-4.388 0-7.952-3.565-7.952-7.945 0-4.387 3.564-7.951 7.952-7.951 4.38 0 7.943 3.564 7.943 7.951 0 4.38-3.571 7.944-7.943 7.944Z" fill="#fff"/><path d="M190.372 64.34c-4.815 0-8.737 3.915-8.737 8.738 0 4.815 3.922 8.737 8.737 8.737 4.823 0 8.745-3.922 8.745-8.737 0-4.823-3.914-8.737-8.745-8.737Zm.016 16.682c-4.388 0-7.952-3.564-7.952-7.944a7.956 7.956 0 0 1 7.952-7.951c4.38 0 7.943 3.563 7.943 7.951 0 4.38-3.571 7.944-7.943 7.944Z" fill="#000" opacity=".3"/><path d="M206.611 80.679v4.998c0 7.28-5.899 13.186-13.179 13.186h-6.104c-2.801 0-5.388-.877-7.524-2.358a13.184 13.184 0 0 1-5.663-10.828v-4.739a5.98 5.98 0 0 1 5.975-5.975h20.787a5.711 5.711 0 0 1 5.708 5.716Z" fill="#9BC256"/><path d="M192.723 85.921c0 1.06-.702 1.953-1.672 2.236v2.549a.67.67 0 0 1-.663.671.67.67 0 0 1-.664-.671v-2.55a2.33 2.33 0 0 1-1.679-2.235 2.342 2.342 0 0 1 2.343-2.335 2.335 2.335 0 0 1 2.335 2.335Z" fill="#D2E5F3"/><path opacity=".1" d="M206.611 80.679v4.998c0 7.28-5.899 13.186-13.179 13.186h-6.104c-2.801 0-5.388-.877-7.524-2.358 12.331-3.373 17.703-14.079 19.992-21.542h1.107a5.71 5.71 0 0 1 5.708 5.716Z" fill="#000"/><path d="M230.77 123.732h-80.78a3.998 3.998 0 0 1-3.999-3.999v-10.698a3.998 3.998 0 0 1 3.999-3.999h80.773a3.997 3.997 0 0 1 3.998 3.999v10.698a3.99 3.99 0 0 1-3.991 3.999Z" fill="#fff"/><path d="m157.567 114.384 1.824 1.007-.626 1.092-1.862-1.092.016 2.068h-1.221l.015-2.052-1.847 1.076-.641-1.092 1.847-1.007-1.847-1.007.641-1.107 1.847 1.092-.015-2.053h1.221l-.016 2.068 1.862-1.107.626 1.107-1.824 1.007Zm11.378 0 1.824 1.007-.626 1.092-1.862-1.092.015 2.068h-1.221l.016-2.052-1.847 1.076-.641-1.092 1.847-1.007-1.847-1.007.641-1.107 1.847 1.092-.016-2.053h1.221l-.015 2.068 1.862-1.107.626 1.107-1.824 1.007Zm11.385 0 1.824 1.007-.626 1.092-1.862-1.092.015 2.068h-1.22l.015-2.052-1.847 1.076-.641-1.092 1.847-1.007-1.847-1.007.641-1.107 1.847 1.092-.015-2.053h1.22l-.015 2.068 1.862-1.107.626 1.107-1.824 1.007Zm11.378 0 1.823 1.007-.625 1.092-1.862-1.092.015 2.068h-1.221l.015-2.052-1.846 1.076-.641-1.092 1.846-1.007-1.846-1.007.641-1.107 1.846 1.092-.015-2.053h1.221l-.015 2.068 1.862-1.107.625 1.107-1.823 1.007Zm11.385 0 1.824 1.007-.626 1.092-1.862-1.092.015 2.068h-1.221l.016-2.052-1.847 1.076-.641-1.092 1.847-1.007-1.847-1.007.641-1.107 1.847 1.092-.016-2.053h1.221l-.015 2.068 1.862-1.107.626 1.107-1.824 1.007Z" fill="#9BC256"/></g><defs><clipPath id="a"><rect width="380" height="227" rx="10" fill="#fff"/></clipPath></defs></svg>