<svg width="380" height="227" fill="none" xmlns="http://www.w3.org/2000/svg"><g clip-path="url(#a)"><rect width="380" height="227" rx="10" fill="#F0F3FA"/><path opacity=".1" d="M30.776 227v-60.869l5.338 5.525H16.916v-10.208H42.95V227H30.776Z" fill="#233654"/><path d="M273.515 87.59h-64.742A4.774 4.774 0 0 1 204 82.816V30.773A4.769 4.769 0 0 1 208.773 26h64.742a4.774 4.774 0 0 1 4.773 4.773v52.036a4.766 4.766 0 0 1-4.773 4.78Z" fill="#D7DEED"/><path d="M125.214 158.409a8.206 8.206 0 0 1-8.206-8.206V78.86c0-3.634 3.145-6.57 7.019-6.57h6.706c2.736 0 5.222-1.492 6.369-3.818l1.444-2.928c1.147-2.326 3.634-3.818 6.369-3.818h31.846c2.478 0 4.781 1.227 6.04 3.232l1.564 2.479c1.26 1.997 3.562 3.233 6.04 3.233h40.597c3.875 0 7.019 2.944 7.019 6.57v72.963a8.206 8.206 0 0 1-8.206 8.206H125.214Z" fill="#fff"/><path d="M125.214 158.409a8.206 8.206 0 0 1-8.206-8.206V78.86c0-3.634 3.145-6.57 7.019-6.57h6.706c2.736 0 5.222-1.492 6.369-3.818l1.444-2.928c1.147-2.326 3.634-3.818 6.369-3.818h31.846c2.478 0 4.781 1.227 6.04 3.232l1.564 2.479c1.26 1.997 3.562 3.233 6.04 3.233h40.597c3.875 0 7.019 2.944 7.019 6.57v72.963a8.206 8.206 0 0 1-8.206 8.206H125.214Z" fill="#879EC1" opacity=".3"/><path d="m186.402 70.662-25.821-.057-2.31-4.315c-1.5-2.8-4.548-4.564-7.893-4.564h-25.244c-4.492 0-8.134 3.409-8.134 7.62v80.408c0 4.781 4.139 8.655 9.241 8.655h102.531c5.102 0 9.241-3.874 9.241-8.655v-73.18a5.912 5.912 0 0 0-5.912-5.912h-45.699ZM264.67 203.44H108.7c-3.66 0-6.63-2.97-6.63-6.63v-1.94c0-3.66 2.97-6.63 6.63-6.63h155.96c3.66 0 6.63 2.97 6.63 6.63v1.94c0 3.66-2.97 6.63-6.62 6.63Z" fill="#fff"/><path d="M180.06 203.44H108.7c-3.66 0-6.63-2.97-6.63-6.63v-1.94c0-3.66 2.97-6.63 6.63-6.63h71.36c3.66 0 6.63 2.97 6.63 6.63v1.94c-.01 3.66-2.97 6.63-6.63 6.63Z" fill="#9BC256"/><path d="m114.86 188.25-9.01 14.29 1.41.63c.4.18.83.27 1.26.27h2.86l9.78-15.19h-6.3Zm16.09 0-9.57 15.19h6.11l9.78-15.19h-6.32Zm16.1 0-9.58 15.19h6.12l9.77-15.19h-6.31Zm16.09 0-9.57 15.19h6.11l9.78-15.19h-6.32Zm16.1 0-9.57 15.19h6.11l7.7-11.97.91-1.3c-1.18-1.3-2.99-1.83-5.15-1.92Z" fill="#fff" opacity=".3"/><path fill-rule="evenodd" clip-rule="evenodd" d="M227.84 60.26a.574.574 0 0 1 .945.084.607.607 0 0 1-.078.703c-1.004 1.134-1.437 2.016-1.149 2.519.928 1.615 8.956-1.299 17.932-6.509 8.975-5.21 15.5-10.743 14.572-12.359-.276-.48-1.178-.56-2.546-.299a.59.59 0 0 1-.624-.28.557.557 0 0 1 .395-.832c2.687-.393 4.593-.065 5.261 1.099 1.684 2.933-5.137 10.063-15.236 15.925s-19.651 8.236-21.335 5.303c-.691-1.204.05-3.114 1.863-5.354Z" fill="#fff"/><path d="M256.909 46.805c.488-.324.625-.984.269-1.45a15.896 15.896 0 0 0-27.048 16.35c.247.53.895.717 1.409.435s.697-.926.456-1.46a13.772 13.772 0 0 1 15.566-19.12 13.777 13.777 0 0 1 7.844 4.97c.36.462 1.015.599 1.504.275Zm-21.432 19.938c-.358.464-.274 1.133.213 1.46a15.9 15.9 0 0 0 16.568.695 15.89 15.89 0 0 0 8.172-14.43c-.02-.585-.544-1.01-1.127-.952-.583.059-1.003.58-.99 1.165A13.774 13.774 0 0 1 236.99 66.52c-.49-.322-1.155-.24-1.513.224Z" fill="#fff"/><path d="M193.359 102.032c-.689 0-1.351.05-2.039.176C189.587 95.099 183.164 90 175.544 90c-8.946 0-16.235 7.184-16.235 16.001 0 .904.076 1.783.229 2.687-4.791.377-8.538 4.346-8.538 9.144 0 5.049 4.18 9.168 9.303 9.168h33.03c6.983 0 12.667-5.601 12.667-12.484.025-6.883-5.658-12.484-12.641-12.484Z" fill="#D7DEED"/><path d="M198.851 133.447a1.921 1.921 0 0 0-1.767-1.192h-4.38c-.461-11.563-5.225-18.435-15.29-22.138a22.625 22.625 0 0 0-4.2-1.09 1.894 1.894 0 0 0-2.1 1.217c-.308.862.025 1.8.794 2.282 6.018 3.652 8.759 9.586 9.066 19.729h-4.226c-.768 0-1.485.457-1.767 1.167-.307.71-.128 1.522.41 2.079l10.04 9.941c.384.38.87.558 1.357.558s.973-.177 1.332-.533l10.296-9.94c.563-.533.742-1.37.435-2.08Z" fill="#9BC256"/></g><defs><clipPath id="a"><rect width="380" height="227" rx="10" fill="#fff"/></clipPath></defs></svg>