<svg width="20" height="20" fill="none" xmlns="http://www.w3.org/2000/svg"><path fill-rule="evenodd" clip-rule="evenodd" d="M5 2a3 3 0 0 0-3 3v10a3 3 0 0 0 3 3h10a3 3 0 0 0 3-3V5a3 3 0 0 0-3-3H5Zm3.05 6.288a.898.898 0 1 0 0-1.796.898.898 0 0 0 0 1.796Zm-1.212 2.431a.588.588 0 1 0-.836-.827l-.698.705-.685.7a.588.588 0 0 0 .84.823l.306-.312c.826.685 2.123 1.69 4.234 1.652 2.111.039 3.41-.967 4.234-1.652l.306.312a.588.588 0 0 0 .841-.823l-.683-.698-.7-.707a.588.588 0 0 0-.837.827l.243.245c-.789.644-1.76 1.352-3.392 1.32a.92.92 0 0 0-.023 0c-1.631.032-2.603-.676-3.392-1.32l.242-.245Zm6.06-3.33a.898.898 0 1 1-1.796 0 .898.898 0 0 1 1.796 0Z" fill="#5A78A6"/></svg>