<svg width="20" height="20" fill="none" xmlns="http://www.w3.org/2000/svg"><path fill-rule="evenodd" clip-rule="evenodd" d="M18 10a8 8 0 1 1-16 0 8 8 0 0 1 16 0Zm-8-4.21a2.124 2.124 0 1 0 0 4.248 2.124 2.124 0 0 0 0-4.249Zm0 3.183a1.059 1.059 0 1 1 0-2.118 1.059 1.059 0 0 1 0 2.118Zm3.13 1.39a.719.719 0 0 0-.98-.276c-1.447.811-2.853.811-4.3 0a.723.723 0 0 0-.705 1.264c.475.269.982.476 1.509.617L7.63 12.992a.717.717 0 0 0 1.013 1.013L10 12.645 11.356 14a.717.717 0 0 0 1.014-1.014l-1.024-1.023a6.407 6.407 0 0 0 1.509-.618.718.718 0 0 0 .275-.982Z" fill="#5A78A6"/></svg>