<svg width="20" height="20" fill="none" xmlns="http://www.w3.org/2000/svg"><g clip-path="url(#a)"><path fill-rule="evenodd" clip-rule="evenodd" d="M18 10a8 8 0 1 1-16 0 8 8 0 0 1 16 0Zm-7.632 3.82h-.764s-1.688.102-3.174-1.445c-1.62-1.688-3.05-5.036-3.05-5.036s-.083-.22.007-.325c.1-.12.375-.127.375-.127l1.828-.012s.172.029.296.119a.572.572 0 0 1 .158.214s.296.748.687 1.423c.764 1.32 1.12 1.609 1.379 1.467.377-.206.264-1.865.264-1.865s.007-.602-.19-.87c-.153-.208-.44-.27-.568-.286-.103-.014.066-.253.285-.36.33-.161.91-.17 1.596-.163.535.005.69.039.898.09.485.116.47.492.438 1.302-.01.242-.022.522-.022.847 0 .073-.002.15-.004.23-.011.415-.024.89.249 1.066.14.09.482.014 1.339-1.44.406-.69.71-1.5.71-1.5s.067-.145.17-.207c.106-.063.249-.044.249-.044l1.923-.012s.578-.069.672.192c.098.274-.216.914-1.002 1.961-.746.995-1.109 1.36-1.075 1.684.025.236.26.45.712.87.947.879 1.2 1.34 1.26 1.45a.604.604 0 0 0 .01.02c.424.702-.47.757-.47.757l-1.708.024s-.367.073-.85-.26c-.253-.173-.5-.456-.735-.726-.36-.412-.693-.793-.976-.703-.477.15-.462 1.177-.462 1.177s.004.219-.105.336c-.118.127-.349.152-.349.152Z" fill="#5A78A6"/></g><defs><clipPath id="a"><path fill="#fff" transform="translate(2 2)" d="M0 0h16v16H0z"/></clipPath></defs></svg>